<svg width="64" height="64" viewBox="0 0 64 64" fill="none" xmlns="http://www.w3.org/2000/svg">
<path d="M64 32C64 49.6731 49.6731 64 32 64C14.3269 64 0 49.6731 0 32C0 14.3269 14.3269 0 32 0C49.6731 0 64 14.3269 64 32ZM4.8 32C4.8 47.0221 16.9779 59.2 32 59.2C47.0221 59.2 59.2 47.0221 59.2 32C59.2 16.9779 47.0221 4.8 32 4.8C16.9779 4.8 4.8 16.9779 4.8 32Z" fill="#27AE60"/>
<path d="M2.4 32C1.07452 32 -0.00936634 33.076 0.0899435 34.3978C0.502019 39.8823 2.32238 45.1828 5.39297 49.7782C8.90918 55.0406 13.9069 59.1421 19.7541 61.5641C25.6014 63.9861 32.0355 64.6199 38.2429 63.3851C44.4503 62.1504 50.1521 59.1027 54.6274 54.6274C59.1027 50.1521 62.1504 44.4503 63.3851 38.2429C64.6199 32.0355 63.9861 25.6014 61.5641 19.7541C59.1421 13.9069 55.0406 8.90918 49.7782 5.39297C45.1828 2.32238 39.8823 0.50202 34.3978 0.0899438C33.076 -0.00936622 32 1.07452 32 2.4C32 3.72548 33.0766 4.789 34.397 4.9058C38.931 5.30689 43.3057 6.84105 47.1115 9.38403C51.5845 12.3728 55.0708 16.6209 57.1295 21.591C59.1882 26.5612 59.7269 32.0302 58.6774 37.3065C57.6278 42.5827 55.0373 47.4293 51.2333 51.2333C47.4293 55.0373 42.5827 57.6278 37.3065 58.6774C32.0302 59.7269 26.5612 59.1882 21.591 57.1295C16.6209 55.0708 12.3728 51.5845 9.38402 47.1115C6.84105 43.3057 5.30689 38.931 4.9058 34.397C4.789 33.0766 3.72548 32 2.4 32Z" fill="#F2F2F2"/>
</svg>
