<svg width="20" height="20" viewBox="0 0 20 20" fill="none" xmlns="http://www.w3.org/2000/svg">
<path d="M15.9417 3.05834C15.784 2.90181 15.5863 2.79177 15.3702 2.74032C15.1541 2.68886 14.928 2.69798 14.7167 2.76667L2.52502 6.83334C2.29891 6.90498 2.09911 7.04203 1.95084 7.22717C1.80258 7.4123 1.7125 7.63722 1.692 7.87352C1.67149 8.10982 1.72146 8.3469 1.83562 8.55481C1.94977 8.76272 2.12297 8.93214 2.33336 9.04167L7.39169 11.5417L9.89169 16.6167C9.99217 16.8153 10.1459 16.9821 10.3358 17.0984C10.5256 17.2146 10.7441 17.2758 10.9667 17.275H11.05C11.2884 17.2574 11.5161 17.1686 11.7033 17.02C11.8906 16.8714 12.0288 16.6699 12.1 16.4417L16.225 4.28334C16.2987 4.07328 16.3112 3.84662 16.261 3.62975C16.2108 3.41288 16.1001 3.21472 15.9417 3.05834ZM3.04169 7.98334L13.6834 4.43334L7.77502 10.3417L3.04169 7.98334ZM11.025 15.9583L8.65836 11.225L14.5667 5.31667L11.025 15.9583Z" fill="#27AE60"/>
</svg>
